PathFileType	4	(X/Y/Z)	D:\TRACE\spotREDO_2-26-24\spot_Both_Motion_3_3-v60.trc
DataRate	CameraRate	NumFrames	NumMarkers	Units	OrigDataRate	OrigDataStartFrame	OrigNumFrames
100.00	100.00	      24	9	mm	100.00	4376	      7000
Frame#	Time	front left toe			Front right toe			aft left toe			aft right toe			Arm			FL body			FR body			AL Body			AR Body			
		X1	Y1	Z1	X2	Y2	Z2	X3	Y3	Z3	X4	Y4	Z4	X5	Y5	Z5	X6	Y6	Z6	X7	Y7	Z7	X8	Y8	Z8	X9	Y9	Z9	

4376	43.750	-98.61291	-19.09983	-495.18307	304.29263	-27.00871	-563.31079	9.88110	30.47738	161.07724	402.38919	28.87340	38.16658	89.68214	609.21088	-835.11456	28.34938	491.76740	-560.40936	182.29312	493.14883	-580.93512	137.74879	583.66583	312.23273	284.16980	575.09656	296.40771	
4377	43.760	-98.35432	-18.87499	-495.26611	304.66382	-26.95302	-563.30267	10.18067	30.31108	161.28922	402.70703	28.82281	38.35725	90.46117	609.14984	-835.15314	30.29604	492.33624	-559.67352	184.38156	493.23364	-579.74457	139.39822	583.96985	313.04892	285.93155	575.04333	297.06046	
4378	43.770	-98.06825	-18.66828	-495.25143	305.27512	-26.79327	-563.15137	10.19531	30.29757	161.40862	402.85004	28.89846	38.48991	91.01754	609.17932	-835.11200	32.40068	492.48718	-558.94690	186.60016	493.54022	-579.14075	141.64287	583.64386	313.68240	287.75092	574.93378	297.81891	
4379	43.780	-97.84120	-18.55520	-495.25623	304.71329	-26.37965	-563.30579	10.28855	30.22546	161.44435	402.93106	29.04733	38.73838	91.27475	609.34283	-835.01166	34.84325	493.22021	-558.59308	188.95639	494.09265	-578.64941	142.90456	583.41809	314.14792	289.42432	574.68225	298.59259	
4380	43.790	-98.14484	-18.46023	-495.40790	305.50006	-26.22926	-562.59973	10.09295	30.08687	161.69450	402.98822	28.61658	38.94586	91.15595	609.53485	-835.17114	37.25127	493.66257	-557.63354	191.54251	494.24411	-577.37323	144.93962	583.94470	315.44974	291.52060	574.56836	299.60287	
4381	43.800	-101.20177	-12.80739	-492.49039	306.55075	-27.10213	-562.66254	10.61301	30.71620	161.54900	403.52432	26.90065	38.89045	90.87234	609.84094	-835.23425	40.07647	493.85522	-556.98877	194.13380	494.51096	-576.43256	147.00208	583.39990	316.16095	293.75241	574.25140	300.82275	
4382	43.810	-100.00541	-3.44424	-488.90790	308.07288	-27.83288	-562.13550	12.21554	31.14394	161.07349	404.56277	26.92882	39.34748	90.72729	610.26074	-835.10504	43.21311	493.23386	-556.52454	197.35463	495.06808	-576.39355	147.13058	583.25232	316.79880	294.40677	575.26288	301.50027	
4383	43.820	-93.60706	8.53969	-487.78522	309.31348	-28.16342	-562.51990	12.25614	30.80958	161.09454	404.45837	27.10780	39.18336	90.96015	610.34430	-834.79468	46.32109	492.54410	-556.23651	200.14815	495.05688	-575.24646	149.37775	583.22797	317.35202	295.11804	575.92902	302.54236	
4384	43.830	-98.06611	25.57743	-487.18704	309.69931	-27.72681	-561.90985	11.98908	30.76535	161.30739	404.52124	27.34278	39.77640	90.94946	610.55927	-835.18707	48.69603	492.35562	-555.79358	202.63020	495.73029	-575.05579	150.10577	583.08350	317.88647	297.04254	576.08514	303.08939	
4385	43.840	-96.84045	43.70757	-490.19150	309.84482	-27.59459	-561.86859	12.48749	31.04194	161.19252	404.95584	27.16148	39.88464	91.01380	610.88727	-835.22546	50.77950	491.79532	-555.06317	204.56235	496.02808	-574.33301	151.73987	582.72015	318.50159	298.86301	576.98181	303.73407	
4386	43.850	-100.07450	61.48647	-493.08493	309.72012	-27.26844	-561.72858	12.71031	31.41240	161.07794	405.40002	27.02621	39.97303	90.73055	611.17487	-834.34509	52.42776	491.83771	-554.57379	206.41449	496.35834	-573.34607	153.68712	582.22894	319.00616	299.60684	577.07947	304.30106	
4387	43.860	-100.66347	76.12971	-495.93558	309.67090	-26.39922	-561.66400	13.12687	31.69044	161.58524	405.85416	26.43879	39.99270	90.12438	610.93616	-834.09912	53.42408	492.56229	-553.67920	207.36633	497.03842	-573.40131	155.35846	582.57361	320.11072	302.36234	576.33118	304.82080	
4388	43.870	-99.19928	85.87421	-496.71405	309.34991	-25.95487	-561.68671	13.50502	31.57205	161.71967	405.91495	26.32674	40.14136	90.10643	610.50842	-833.74188	54.08917	492.91455	-553.16077	208.19292	497.62238	-572.77216	157.30620	581.94580	320.61636	304.30408	576.59485	305.31299	
4389	43.880	-99.25850	92.50414	-496.03366	309.12048	-25.57767	-561.81586	14.16835	31.50363	162.09561	405.92261	26.17005	40.19552	90.73756	610.10925	-833.38361	54.80471	493.20285	-552.62146	208.78526	497.85410	-571.83557	158.57658	582.00159	321.16971	305.18695	576.44598	305.74643	
4390	43.890	-96.08341	95.76597	-495.67923	309.32346	-25.13968	-561.66162	14.41488	31.42256	162.21951	405.96368	26.17193	40.29980	91.36874	609.68591	-833.41626	55.11982	493.50244	-551.75806	209.22824	498.18875	-571.35858	159.74425	582.38806	322.02609	306.71780	576.46918	306.19638	
4391	43.900	-97.42535	97.79652	-495.37585	309.63794	-24.66088	-561.35297	14.42930	31.35701	162.33057	406.02954	26.14665	40.41379	92.41463	609.42346	-833.56671	55.55579	493.69064	-551.13324	209.49266	498.68610	-571.30334	160.39417	582.65100	322.39633	307.31104	576.89594	306.78439	
4392	43.910	-96.60524	97.96973	-495.57880	309.66916	-23.89422	-561.13068	14.45632	31.17561	162.53096	406.06293	26.24677	40.54099	93.79240	609.12671	-833.58044	55.96633	493.65646	-550.46838	209.66702	498.80026	-570.74860	161.47049	582.30597	322.63062	308.06158	577.26624	307.15213	
4393	43.920	-95.48887	101.26062	-495.81534	309.57166	-23.59672	-561.21844	14.58871	30.74648	162.84663	406.08121	26.25402	40.60639	95.20383	609.27936	-833.95544	55.82687	493.65836	-550.02283	209.75412	498.72711	-570.23560	162.11546	582.60736	323.05826	308.61813	577.61383	307.35956	
4394	43.930	-94.11164	107.31351	-495.95694	309.62680	-23.31594	-561.12775	14.54607	30.48435	162.91020	406.09561	26.25523	40.67261	96.95337	610.13873	-834.34607	55.63822	493.58652	-549.70605	209.68561	498.44382	-569.59845	162.42455	583.41522	323.56247	308.91782	578.15991	307.65833	
4395	43.940	-91.18481	112.25849	-497.13147	309.50122	-22.91664	-561.03729	14.59014	30.39783	162.92587	406.11542	26.26375	40.72174	98.54478	611.62421	-834.77850	55.36100	493.65594	-549.45514	209.43842	498.46454	-569.42645	162.33755	584.06488	323.83981	308.96512	578.50525	307.71600	
4396	43.950	-89.41396	118.42761	-499.18073	309.22818	-22.22929	-560.97040	14.57521	30.36636	162.92793	406.10406	26.21745	40.76079	101.05476	613.33154	-834.98828	55.12312	493.93478	-549.30457	209.35355	498.71185	-569.24579	162.21622	583.85675	323.85422	308.69525	578.65125	307.88187	
4397	43.960	-86.91296	127.94339	-501.09845	309.73285	-21.64634	-560.67188	14.34502	30.27283	162.91690	406.12042	26.30759	40.88115	102.86434	615.24237	-834.91528	55.26192	494.23999	-549.31946	209.34663	499.21091	-569.07312	161.11766	584.05786	324.20700	308.06204	578.66339	308.22382	
4398	43.970	-85.23421	137.27753	-502.73270	309.81451	-21.49318	-560.64160	14.16631	30.06901	162.97948	406.03134	26.36770	41.09206	104.24352	616.63110	-835.21948	55.67862	494.67532	-549.40295	209.54642	499.82007	-568.87744	160.32002	583.78528	324.31744	307.35834	578.41589	308.84250	
4399	43.980	-86.96849	140.08032	-505.64664	310.32858	-21.03988	-560.25909	13.59930	29.66718	163.04565	405.85086	26.36322	41.23837	104.92776	617.58673	-835.34851	56.14196	495.41449	-549.37933	210.03818	500.79019	-569.17450	159.16582	583.40759	324.62927	306.00784	578.26880	309.06927	
